<svg width="109" height="25" viewBox="0 0 109 25" fill="none" xmlns="http://www.w3.org/2000/svg">
<path d="M0.884277 1.11222H4.06876V10.9675H16.6056V1.11222H19.7901V24.1079H16.6056V13.7498H4.06876V24.1079H0.884277V1.11222Z" fill="white"/>
<path d="M35.4671 24.5102C31.8245 24.5102 28.9976 23.5157 26.9863 21.5268C24.9974 19.5155 24.003 16.5432 24.003 12.6101C24.003 8.67688 24.9974 5.71582 26.9863 3.72689C28.9976 1.7156 31.8245 0.709961 35.4671 0.709961C39.132 0.709961 41.959 1.7156 43.9479 3.72689C45.9591 5.71582 46.9648 8.67688 46.9648 12.6101C46.9648 16.5209 45.9591 19.482 43.9479 21.4932C41.959 23.5045 39.132 24.5102 35.4671 24.5102ZM35.4671 21.7949C38.1264 21.7949 40.16 21.0798 41.5679 19.6496C42.9758 18.197 43.6797 15.8952 43.6797 12.7442V12.6101C43.6574 9.41436 42.9422 7.0902 41.5344 5.63761C40.1265 4.16267 38.1041 3.4252 35.4671 3.4252C32.8525 3.4252 30.8412 4.16267 29.4333 5.63761C28.0254 7.0902 27.3103 9.41436 27.288 12.6101V12.7442C27.288 15.8952 27.9919 18.197 29.3998 19.6496C30.8077 21.0798 32.8301 21.7949 35.4671 21.7949Z" fill="white"/>
<path d="M57.1658 3.8945H49.2549V1.11222H68.2613V3.8945H60.3503V24.1079H57.1658V3.8945Z" fill="white"/>
<path d="M71.6579 1.11222H89.3569V3.8945H74.8423V10.9675H87.882V13.7498H74.8423V21.3256H89.558V24.1079H71.6579V1.11222Z" fill="white"/>
<path d="M94.016 1.11222H97.2005V21.3256H109V24.1079H94.016V1.11222Z" fill="white"/>
</svg>
