<svg width="24" height="24" viewBox="0 0 24 24" fill="none" xmlns="http://www.w3.org/2000/svg">
<path fill-rule="evenodd" clip-rule="evenodd" d="M4 2H10V5.76533L12 9.76533V22H2V9.76533L4 5.76533V2ZM8 4H6V5.00267H8V4ZM4 20H9.99467V10.2347L8.37867 6.99733H5.616L4 10.2347V20Z" fill="#C6AF66"/>
<path fill-rule="evenodd" clip-rule="evenodd" d="M22 2V10C22 11.856 20.72 13.4133 19.0027 13.856V20H21.0027V22H15.0027V20H17.0027V13.856C15.28 13.4133 14 11.856 14 10V2H22ZM16 4V10C16 11.104 16.896 12 18 12C19.104 12 20 11.104 20 10V4H16Z" fill="#C6AF66"/>
</svg>
