<svg width="24" height="24" viewBox="0 0 24 24" fill="none" xmlns="http://www.w3.org/2000/svg">
<path d="M7.42552 13.6546L3.36042 12.3301C3.36042 12.3301 2.8746 12.133 3.03104 11.6861C3.06324 11.5939 3.1282 11.5155 3.32253 11.3807C4.22325 10.7529 19.9941 5.08441 19.9941 5.08441C19.9941 5.08441 20.4394 4.93436 20.702 5.03416C20.767 5.05427 20.8254 5.09128 20.8714 5.1414C20.9174 5.19152 20.9492 5.25295 20.9636 5.31941C20.992 5.43679 21.0039 5.55756 20.9989 5.67823C20.9976 5.78261 20.985 5.87936 20.9754 6.03107C20.8794 7.58085 18.005 19.1474 18.005 19.1474C18.005 19.1474 17.833 19.8242 17.2168 19.8474C17.0654 19.8522 16.9145 19.8266 16.7732 19.7719C16.6319 19.7173 16.5031 19.6347 16.3944 19.5292C15.1852 18.4891 11.006 15.6805 10.0826 15.0628C10.0617 15.0486 10.0442 15.0301 10.0311 15.0086C10.018 14.987 10.0097 14.9629 10.0068 14.9379C9.99387 14.8728 10.0647 14.7921 10.0647 14.7921C10.0647 14.7921 17.3417 8.32375 17.5354 7.6447C17.5504 7.5921 17.4937 7.56614 17.4177 7.58918C16.9343 7.76699 8.55569 13.0582 7.63096 13.6421C7.56439 13.6623 7.49404 13.6665 7.42552 13.6546V13.6546Z" fill="white"/>
</svg>
